<svg width="1856" height="1017" viewBox="0 0 1856 1017" fill="none" xmlns="http://www.w3.org/2000/svg">
<path d="M1108.7 130.5V21C1108.7 9.9543 1099.75 1 1088.7 1H21C9.95431 1 1 9.95431 1 21V261C1 272.046 9.95429 281 21 281H129.96C141.006 281 149.96 289.954 149.96 301V996C149.96 1007.05 158.914 1016 169.96 1016H1835C1846.05 1016 1855 1007.05 1855 996V170.5C1855 159.454 1846.05 150.5 1835 150.5H1128.7C1117.66 150.5 1108.7 141.546 1108.7 130.5Z" fill="#6FCCDD" fill-opacity="0.5" stroke="#AAAAAA"/>
</svg>
